<svg width="100%" height="100%" id="svg" viewBox="0 0 1440 500" xmlns="http://www.w3.org/2000/svg" class="transition duration-300 ease-in-out delay-150"><defs><linearGradient id="gradient" x1="0%" y1="50%" x2="100%" y2="50%"><stop offset="5%" stop-color="#71b280"></stop><stop offset="95%" stop-color="#134e5e"></stop></linearGradient></defs><path d="M 0,500 C 0,500 0,166 0,166 C 77.25358851674642,153.38755980861242 154.50717703349284,140.77511961722487 260,150 C 365.49282296650716,159.22488038277513 499.22488038277504,190.2870813397129 592,181 C 684.775119617225,171.7129186602871 736.5933014354068,122.07655502392345 816,109 C 895.4066985645932,95.92344497607655 1002.401913875598,119.40669856459331 1111,135 C 1219.598086124402,150.5933014354067 1329.799043062201,158.29665071770336 1440,166 C 1440,166 1440,500 1440,500 Z" stroke="none" stroke-width="0" fill="url(#gradient)" fill-opacity="0.53" class="transition-all duration-300 ease-in-out delay-150 path-0"></path><defs><linearGradient id="gradient" x1="0%" y1="50%" x2="100%" y2="50%"><stop offset="5%" stop-color="#71b280"></stop><stop offset="95%" stop-color="#134e5e"></stop></linearGradient></defs><path d="M 0,500 C 0,500 0,333 0,333 C 102.83253588516749,321.5933014354067 205.66507177033498,310.1866028708134 297,329 C 388.334928229665,347.8133971291866 468.17224880382764,396.8468899521531 556,395 C 643.8277511961724,393.1531100478469 739.6459330143542,340.42583732057415 854,308 C 968.3540669856458,275.57416267942585 1101.2440191387561,263.44976076555025 1202,271 C 1302.7559808612439,278.55023923444975 1371.377990430622,305.77511961722485 1440,333 C 1440,333 1440,500 1440,500 Z" stroke="none" stroke-width="0" fill="url(#gradient)" fill-opacity="1" class="transition-all duration-300 ease-in-out delay-150 path-1"></path></svg>